<?xml version="1.0" encoding="UTF-8"?>
<svg id="uuid-4f20c20a-6b00-4bab-ac17-5ed7054bcee9" data-name="Layer 1" xmlns="http://www.w3.org/2000/svg" viewBox="0 0 52.3 75.75">
  <defs>
    <style>
      .uuid-03df5f3b-853e-4aa2-ac96-557586862380 {
        fill: #fdfeff;
      }

      .uuid-f36b871c-8cd7-445d-a2d2-246b30a4ead7 {
        fill: #044925;
      }
    </style>
  </defs>
  <g>
    <path class="uuid-f36b871c-8cd7-445d-a2d2-246b30a4ead7" d="M52.3,26.15c0,14.44-26.15,49.6-26.15,49.6,0,0-26.15-35.16-26.15-49.6S11.71,0,26.15,0s26.15,11.71,26.15,26.15Z"/>
    <circle class="uuid-03df5f3b-853e-4aa2-ac96-557586862380" cx="26.15" cy="24.78" r="20.72" transform="translate(-9.88 24.77) rotate(-43.44)"/>
  </g>
  <g>
    <path class="uuid-f36b871c-8cd7-445d-a2d2-246b30a4ead7" d="M41.01,20.29l3.2,5.54c.67,1.15.63,2.56-.1,3.68-.66,1.01-1.73,1.59-2.94,1.59h-3.29l-3.89-6.75,7.03-4.06ZM39.08,37.48c-.94,1.5-2.56,2.39-4.33,2.39h-2.73c-.18,0-.33.15-.33.33v2.4l-4.67-6.79,4.67-6.79v2.4c0,.18.15.33.33.33h9.14c.62,0,1.23-.14,1.77-.39l-3.86,6.12Z"/>
    <path class="uuid-f36b871c-8cd7-445d-a2d2-246b30a4ead7" d="M8.45,23.99l1.36-2.36c.04-.08.06-.16.03-.25-.02-.08-.08-.16-.15-.2l-2.08-1.2,8.22-.65,3.55,7.44-2.08-1.2c-.16-.09-.36-.04-.45.12l-2.83,4.9-1.74,3.01c-.31.54-.49,1.13-.55,1.73l-3.37-6.4c-.82-1.56-.79-3.41.1-4.94ZM15.89,39.2c-1.33,0-2.53-.74-3.13-1.93h0c-.55-1.08-.51-2.29.09-3.34l1.64-2.85h7.79s0,8.12,0,8.12h-6.39Z"/>
    <path class="uuid-f36b871c-8cd7-445d-a2d2-246b30a4ead7" d="M22.19,18.29l-7.18-3.8,2.99-5.65c.61-1.16,1.8-1.87,3.11-1.87.02,0,.04,0,.06,0,1.21.02,2.27.62,2.91,1.64l1.75,2.79-3.64,6.89ZM27.36,17.74l2.04-1.28c.15-.1.2-.3.1-.45l-3.01-4.8-1.85-2.95c-.33-.53-.77-.97-1.28-1.29h7.24c1.77.01,3.39.91,4.33,2.41l1.45,2.31c.1.15.3.2.45.1l2.04-1.28-3.27,7.56-8.23-.34Z"/>
  </g>
</svg>