<?xml version="1.0" encoding="UTF-8"?>
<svg id="uuid-610f3074-c25b-4715-8682-88a790ed3c99" data-name="Layer 1" xmlns="http://www.w3.org/2000/svg" viewBox="0 0 52.3 75.75">
  <defs>
    <style>
      .uuid-5cb91221-ae27-4bb2-8857-3df0d5ffa3e0 {
        fill: #fdfeff;
      }

      .uuid-177d314d-8064-4a1b-8010-da6f85f17851 {
        fill: #eb098a;
      }
    </style>
  </defs>
  <g>
    <path class="uuid-177d314d-8064-4a1b-8010-da6f85f17851" d="M52.3,26.15c0,14.44-26.15,49.6-26.15,49.6,0,0-26.15-35.16-26.15-49.6S11.71,0,26.15,0s26.15,11.71,26.15,26.15Z"/>
    <circle class="uuid-5cb91221-ae27-4bb2-8857-3df0d5ffa3e0" cx="26.15" cy="24.78" r="20.72" transform="translate(-9.88 24.77) rotate(-43.44)"/>
  </g>
  <path class="uuid-177d314d-8064-4a1b-8010-da6f85f17851" d="M10.14,24.37c0,1.86,1.28,3.41,3,3.86v13.15h-2c-.55,0-1,.45-1,1s.45,4.29,1,4.29h30.02c.56,0,1-3.73,1-4.29s-.45-1-1-1h-2v-13.15c1.72-.45,3-2,3-3.86v-1H10.14v1ZM30.15,28.37c2.21,0,4-1.79,4-4,0,1.86,1.28,3.41,3,3.86v13.15h-15.01v-13.01c2.21,0,4-1.79,4-4,0,2.21,1.79,4,4,4ZM21.15,28.23v13.15h-6v-13.15c1.72-.45,3-2,3-3.86,0,1.86,1.28,3.41,3,3.86ZM38.16,14.36H14.14l-4,8h32.02l-4-8ZM18.59,16.59l-2,4c-.09.18-.27.28-.45.28-.07,0-.15-.02-.22-.05-.25-.12-.35-.42-.22-.67l2-4c.13-.25.42-.35.67-.22.25.12.35.42.22.67ZM22.6,16.59l-2,4c-.09.18-.27.28-.45.28-.07,0-.15-.02-.22-.05-.25-.12-.35-.42-.22-.67l2-4c.13-.25.43-.35.67-.22.25.12.35.42.22.67ZM26.65,20.37c0,.28-.22.5-.5.5s-.5-.22-.5-.5v-4c0-.28.22-.5.5-.5s.5.22.5.5v4ZM32.39,20.81c-.08.04-.16.06-.24.06-.18,0-.35-.09-.44-.26l-2.19-4c-.13-.24-.04-.55.2-.68.24-.13.55-.05.68.2l2.19,4c.13.24.04.55-.2.68ZM36.38,20.82c-.07.04-.14.05-.22.05-.18,0-.36-.1-.45-.28l-2-4c-.13-.25-.02-.55.22-.67.24-.12.55-.02.67.22l2,4c.12.25.02.55-.23.67ZM18.64,35.53v-2.31c-.29-.18-.5-.48-.5-.85,0-.55.45-1,1-1s1,.45,1,1c0,.37-.21.67-.5.85v2.31c.3.18.5.48.5.85,0,.55-.45,1-1,1s-1-.45-1-1c0-.37.21-.67.5-.85ZM14.14,12.36c0-.55.45-1,1-1h22.01c.56,0,1,.45,1,1s-.45,1-1,1H15.14c-.55,0-1-.45-1-1Z"/>
</svg>